<?xml version="1.0" encoding="utf-8"?>
<!DOCTYPE svg PUBLIC "-//W3C//DTD SVG 1.1//EN" "http://www.w3.org/Graphics/SVG/1.1/DTD/svg11.dtd">
<svg version="1.1" id="图形" xmlns="http://www.w3.org/2000/svg" xmlns:xlink="http://www.w3.org/1999/xlink" x="0px" y="0px" width="1000px" height="1024px" viewBox="0 0 1000 1024" enable-background="new 0 0 1000 1024" xml:space="preserve">
  <path fill="#bfbfbf" d="M541.8418 405.6843h-58.42378404956043v-350.52434449443274h58.42378404956043V405.6843460134029zM704.3293 639.3669V701.4388244770046c0 30.2365-15.4072 54.7699-45.6419 54.7699H366.5674965047265c-30.2377 0-45.6429-24.5334-45.6429-54.7699v-62.07191524146628H74.45257371054639v-58.420390974919h58.42278468615492v-642.6272986914871c0-30.2365 28.185-58.4204 58.4238-58.4204h642.6576270915427c30.2347 0 58.4228 28.1839 58.4228 58.4204V580.9465182606193h58.42378404956043v58.420390974919H704.3293422090129zM366.5675 697.7873h292.11991961120765v-58.420390974919H366.5674965047265V697.7873002104573zM833.9568-61.6818H191.2981430828562V580.9465182606193h642.6576270915427V-61.68177975332719zM366.5675 405.6843H308.14371245516605v-350.52434449443274h58.42378404956043V405.6843460134029zM717.1102 405.6843h-58.42278468615492v-350.52434449443274h58.42278468615492V405.6843460134029z" transform="translate(0, 812) scale(1, -1)"/>
</svg>
